<svg width="200" height="200" xmlns="http://www.w3.org/2000/svg">
 <!-- Created with Method Draw - http://github.com/duopixel/Method-Draw/ -->
 <g>
  <title>background</title>
  <rect fill="none" id="canvas_background" height="202" width="202" y="-1" x="-1"/>
  <g display="none" overflow="visible" y="0" x="0" height="100%" width="100%" id="canvasGrid">
   <rect fill="url(#gridpattern)" stroke-width="0" y="0" x="0" height="100%" width="100%"/>
  </g>
 </g>
 <g>
  <title>Layer 1</title>
  <path stroke="#000" id="svg_4" d="m4.95995,187.90021c7.877072,-20.348048 18.658618,-37.580735 28.885597,-46.16924c10.956561,-9.201215 6.09551,-13.192407 -5.207075,-4.275309c-4.755139,3.751501 -6.113745,1.0275 -6.113745,-12.258063c0,-31.698295 20.827632,-51.312278 70.940027,-66.806181c42.402518,-13.110203 73.664004,-27.853473 86.625689,-40.853718l10.562168,-10.593648l0,18.431902c0,22.791323 -8.962635,57.22349 -18.883462,72.545462c-10.524223,16.253937 -46.597286,46.256303 -64.298922,53.478159c-15.859097,6.470192 -49.729046,8.374979 -67.830944,3.814714c-9.02092,-2.272539 -11.883877,-0.536204 -16.558046,10.04218c-3.108196,7.034342 -5.651281,17.04179 -5.651281,22.238691c0,5.899923 -2.999342,9.448888 -7.985508,9.448888c-5.922067,0 -7.080845,-2.336871 -4.48449,-9.043835l-0.000008,0z" stroke-opacity="null" stroke-width="1.5" fill="#0c7f2f"/>
 </g>
</svg>